<svg width="148" height="33" viewBox="0 0 148 33" fill="none" xmlns="http://www.w3.org/2000/svg">
<path fill-rule="evenodd" clip-rule="evenodd" d="M10.327 7.5747H16.277C18.5984 7.5747 20.1946 8.01008 21.3561 9.17082C22.3723 10.3316 22.8077 11.9285 22.8077 13.96C22.8077 15.9915 22.3723 17.5885 21.3561 18.7492C20.1946 19.7645 18.5984 20.3453 16.277 20.3453H10.327V7.5747ZM0.167847 26.8761H20.34C24.5492 26.8761 27.8869 25.8607 30.0638 23.8292C32.3853 21.7969 33.4014 18.4592 33.5468 13.9609C33.4014 9.17165 32.3853 5.83318 30.0638 3.94708C27.7415 1.91558 24.4038 0.89941 20.05 1.04482H0.167847V26.8761ZM43.8506 14.5408C44.1406 13.2347 44.7213 12.3639 45.5921 11.7831C46.4629 11.3477 47.769 11.0578 49.366 11.0578C50.9621 11.0578 52.1228 11.3477 53.139 11.9285C54.0098 12.6539 54.5897 13.3792 54.7351 14.5408H43.8506ZM54.0089 20.927C53.5735 21.5061 52.9936 21.9423 52.2682 22.2323C51.542 22.5231 50.5267 22.6677 49.366 22.6677C48.0598 22.6677 46.8982 22.5222 46.1729 22.0869C45.3021 21.6515 44.7222 21.2153 44.4322 20.6362C43.9968 20.0554 43.8514 19.4737 43.8514 19.04H63.879C63.879 15.7015 63.1528 13.2338 61.8466 11.3477C60.6859 9.46163 58.7998 8.15549 56.622 7.4293C54.3006 6.55853 51.6883 6.26856 48.7852 6.26856C44.2868 6.26856 40.8037 7.13932 38.336 9.02625C35.8691 10.9123 34.7084 13.5246 34.563 17.0085C34.7076 20.637 36.0137 23.2484 38.4806 24.99C41.0929 26.8769 44.7213 27.7485 49.5105 27.7485C51.6874 27.7485 53.429 27.6031 55.0251 27.1677C56.6212 26.8769 58.0728 26.4415 59.2335 25.8624C60.3951 25.2816 61.2658 24.5554 61.9912 23.8301C62.862 22.9585 63.2973 21.9431 63.7327 20.9278L54.0089 20.927ZM66.1996 26.8761H75.1981V1.04398H66.1996V26.8761ZM78.3903 32.8268H87.5316V24.8437C88.4032 25.8607 89.4186 26.5853 90.7255 27.0206C92.0309 27.456 93.6278 27.7468 95.3693 27.7468C97.4017 27.7468 99.2878 27.3114 101.029 26.5844C102.625 25.8599 104.076 24.6975 105.091 23.1014C106.108 21.5052 106.688 19.6183 106.688 17.1523C106.688 14.6845 106.108 12.653 105.091 11.0569C104.076 9.4608 102.625 8.29922 101.029 7.57386C99.2878 6.84851 97.4008 6.5577 95.3693 6.5577C93.4824 6.5577 91.7409 6.7031 90.4356 7.28389C89.1303 7.71927 88.1133 8.44463 87.2433 9.4608V6.99308H78.3903V32.8268ZM87.5325 17.1531C87.5325 15.7015 87.8233 14.5408 88.6949 13.8146C89.4194 12.9439 90.7272 12.653 92.4687 12.653C94.2103 12.653 95.5156 13.0884 96.2409 13.8146C97.1125 14.6854 97.4034 15.7007 97.4034 17.1531C97.4034 18.4584 96.968 19.4737 96.2409 20.3453C95.371 21.2153 94.0649 21.5061 92.4687 21.6506C90.7272 21.6506 89.4202 21.2153 88.6949 20.3453C87.8224 19.6191 87.5325 18.4592 87.5325 17.1531ZM108.866 26.8761H118.009V17.733C118.009 16.1369 118.445 14.9762 119.17 14.1054C119.896 13.3792 120.911 13.0901 122.217 13.0901C123.234 13.0901 124.104 13.3801 124.684 13.9609C125.265 14.3962 125.554 15.4116 125.7 16.5723V26.8761H134.698V14.25C134.698 11.4931 133.828 9.6062 132.232 8.30006C130.491 7.13932 128.458 6.41396 125.991 6.55853C123.814 6.55853 121.928 6.84934 120.621 7.5747C119.315 8.15549 118.445 8.88085 118.009 9.46163V1.04398H108.866V26.8761Z" fill="#313131" fill-opacity="0.5"/>
<path fill-rule="evenodd" clip-rule="evenodd" d="M147.032 5.3978V0.173218L137.6 2.78551L147.032 5.3978Z" fill="#313131" fill-opacity="0.5"/>
<path fill-rule="evenodd" clip-rule="evenodd" d="M137.889 26.876H147.032V6.9939H137.889V26.876Z" fill="#313131" fill-opacity="0.5"/>
</svg>
