<svg width="147" height="37" viewBox="0 0 147 37" fill="none" xmlns="http://www.w3.org/2000/svg">
<path fill-rule="evenodd" clip-rule="evenodd" d="M16.4316 33.1077C16.4316 33.1077 2.5479 32.3589 1.73062 17.3997C1.73062 16.656 2.27548 2.63016 17.4486 1.89812C17.8857 1.89812 31.5371 2.63017 32.616 16.3125C32.0853 16.2181 25.7752 14.383 25.7752 14.383L22.2195 34.1957L27.0287 31.6302L29.0627 20.0488L33.8319 21.431C33.8319 21.431 37.2255 9.85365 25.8772 2.66276C25.502 2.42877 14.1277 -4.31087 4.37634 6.08648C4.17411 6.36475 -3.95357 14.9897 2.81866 26.821C3.01755 27.1168 7.39559 34.1957 16.1291 34.4615L16.4316 33.1077Z" fill="#313131" fill-opacity="0.5"/>
<path fill-rule="evenodd" clip-rule="evenodd" d="M15.6118 36.7002L20.5314 34.1673L24.0504 14.2108L7.31704 9.61877L6.16382 13.9158L19.1384 17.3996L15.6118 36.7002ZM41.718 18.4785C41.723 18.1476 41.6019 18.0565 41.2267 18.0565C40.9684 18.0565 40.8289 18.135 40.8289 18.3064C40.8289 18.4292 40.9141 18.491 41.2501 18.5871C42.059 18.8019 42.2921 18.8963 42.4802 19.0559C42.6949 19.2389 42.8052 19.4713 42.8052 19.7529C42.8052 20.2518 42.5537 20.7498 42.1735 21.0315C41.8551 21.2621 41.3495 21.4025 40.7654 21.4025C39.6899 21.4025 39.1024 20.9512 39.1024 20.1264C39.1024 19.9835 39.1158 19.9066 39.1534 19.7403H40.4328C40.4094 19.8607 40.4094 19.8941 40.4094 19.9543C40.4094 20.22 40.6325 20.4064 40.9526 20.4064C41.2584 20.4064 41.4765 20.2501 41.4765 20.0479C41.4765 19.8933 41.3428 19.7821 40.9985 19.6994C40.4035 19.5649 40.0826 19.4429 39.8854 19.3167C39.6431 19.1286 39.5386 18.8821 39.5386 18.5362C39.5386 18.1175 39.725 17.713 40.0367 17.4615C40.3425 17.2166 40.7211 17.1189 41.3662 17.1189C41.9194 17.1189 42.262 17.1832 42.5328 17.3545C42.8244 17.5267 42.9941 17.8534 42.9941 18.2261C42.9941 18.3055 42.9941 18.3657 42.969 18.4777L41.718 18.4785ZM46.3409 20.2209L46.1053 21.293H43.086L43.9409 17.23H45.2161L44.5869 20.2209H46.3409ZM50.4098 17.4782C50.8552 17.8066 51.0875 18.3197 51.0875 18.9891C51.0875 20.3579 50.0864 21.4025 48.7911 21.4025C48.2855 21.4025 47.8167 21.2462 47.4733 20.9671C47.0863 20.6562 46.8691 20.154 46.8691 19.5523C46.8691 18.883 47.134 18.227 47.6011 17.7765C48.0373 17.3395 48.5914 17.1197 49.2315 17.1197C49.6861 17.1197 50.0931 17.2451 50.4098 17.4782ZM48.5362 18.4292C48.2771 18.7706 48.1334 19.1856 48.1259 19.6142C48.1259 20.0671 48.3917 20.3579 48.7911 20.3579C49.3443 20.3579 49.8399 19.6585 49.8399 18.8671C49.8399 18.3983 49.5758 18.1016 49.1939 18.1016C48.9541 18.1008 48.7217 18.2119 48.5362 18.4292ZM53.4825 21.293H52.0661L51.6165 17.23H52.8541L53.0496 19.7395L54.1218 17.23H55.4271L53.4825 21.293ZM56.7525 18.7584H58.5926L58.3929 19.6902H56.5477L56.4349 20.2342H58.6745L58.4506 21.293H54.9642L55.8366 17.23H59.2269L58.9912 18.2905H56.8444L56.7525 18.7584ZM62.806 21.293H61.5584L60.7979 19.0551L60.3333 21.293H59.0689L59.9439 17.23H61.1456L61.9177 19.6142L62.4241 17.23H63.676L62.806 21.293ZM66.2615 18.4785C66.269 18.1476 66.1545 18.0565 65.776 18.0565C65.5219 18.0565 65.3715 18.135 65.3715 18.3064C65.3715 18.4292 65.4676 18.491 65.7927 18.5871C66.6167 18.8019 66.8465 18.8963 67.0278 19.0559C67.2534 19.2389 67.3679 19.4713 67.3679 19.7529C67.3679 20.2518 67.1105 20.7498 66.7253 21.0315C66.3994 21.2621 65.9013 21.4025 65.3139 21.4025C64.2375 21.4025 63.6542 20.9512 63.6542 20.1264C63.6542 19.9835 63.6643 19.9066 63.7061 19.7403H64.9871C64.9696 19.8615 64.957 19.8949 64.957 19.9551C64.957 20.2209 65.191 20.4072 65.5077 20.4072C65.8111 20.4072 66.0275 20.2509 66.0275 20.0487C66.0275 19.8941 65.8888 19.783 65.5462 19.7002C64.957 19.5657 64.6253 19.4437 64.4398 19.3175C64.1999 19.1295 64.0854 18.883 64.0854 18.537C64.0854 18.1183 64.2676 17.7139 64.581 17.4623C64.8927 17.2175 65.2771 17.1197 65.9197 17.1197C66.4721 17.1197 66.8089 17.1841 67.088 17.3554C67.3771 17.5275 67.5451 17.8543 67.5451 18.227C67.5451 18.3064 67.5351 18.3665 67.5225 18.4785H66.2615ZM71.9123 21.293H70.4156L69.5799 19.7236L69.1588 20.0671L68.9005 21.293H67.6312L68.4886 17.23H69.7638L69.498 18.4618L70.7465 17.23H72.4555L70.449 18.9724L71.9123 21.293ZM73.9822 18.7584H75.8349L75.631 19.6902H73.7817L73.6705 20.2342H75.9118L75.6912 21.293H72.2023L73.0647 17.2308H76.455L76.236 18.2913H74.0917L73.9822 18.7584ZM75.7563 15.9715L74.909 16.7804H73.9814L74.4945 15.9715H75.7563ZM32.4706 29.4942H37.2639L36.9238 31.7204H29.5599L30.8669 23.1448H38.1054L37.7628 25.3711H33.1015L32.9394 26.4616H36.9547L36.674 28.3577H32.6435L32.4706 29.4942ZM41.1473 29.4942H44.9771L44.6429 31.7204H38.2392L39.542 23.1448H42.1208L41.1473 29.4942ZM48.6039 29.4942H53.4006L53.0655 31.7204H45.6933L47.0003 23.1448H54.2371L53.902 25.3711H49.2315L49.061 26.4616H53.0981L52.7956 28.3577H48.7852L48.6039 29.4942ZM56.9405 31.7204H54.3717L55.6761 23.1448H58.2483L57.8255 25.9134L60.7979 23.1448H64.0629L60.279 26.5577L63.0701 31.7204H59.8503L58.2483 28.3293L57.3291 29.1692L56.9405 31.7204ZM72.3485 27.426C71.929 30.1511 69.9351 31.9235 67.317 31.9235C66.1554 31.9235 65.2679 31.6126 64.5944 30.9725C63.7069 30.136 63.3994 28.9686 63.6317 27.3633C64.0403 24.7351 66.0676 22.9602 68.6699 22.9602C71.2972 22.9602 72.7521 24.7351 72.3485 27.426ZM66.2381 27.4126C66.0125 28.8708 66.5565 29.7917 67.617 29.7917C68.6732 29.7917 69.5156 28.8591 69.7329 27.426C69.9518 26.0112 69.3919 25.0761 68.3398 25.0761C67.3019 25.0761 66.4479 26.0103 66.2381 27.4126ZM82.2511 31.7204H79.8812L80.6316 26.7248L78.5918 31.7204H76.6572L76.1483 26.7248L75.3845 31.7204H73.0062L74.3165 23.1448H77.782L78.2441 27.7535L80.1402 23.1448H83.5564L82.2511 31.7204ZM92.2557 28.2834C92.0877 29.3739 91.8479 29.9497 91.3206 30.553C90.4816 31.504 89.4061 31.9235 87.7657 31.9235C85.9197 31.9235 84.8601 31.3628 84.4406 30.1795C84.2467 29.6823 84.2333 29.1834 84.3754 28.2834L85.1618 23.1448H87.7272L86.9309 28.3577C86.7938 29.3062 87.1891 29.7917 88.0816 29.7917C88.9682 29.7917 89.5323 29.2928 89.671 28.3577L90.4657 23.1448H93.0295L92.2557 28.2834ZM101.114 31.7204H98.4956L96.5677 27.3006L95.8925 31.7204H93.322L94.6307 23.1448H97.2212L99.1667 27.629L99.8502 23.1448H102.417L101.114 31.7204ZM105.38 31.7204H102.809L104.115 23.1448H106.684L105.38 31.7204ZM109.658 31.7204H107.087L108.397 23.1448H110.965L110.543 25.9134L113.517 23.1448H116.766L112.991 26.5577L115.788 31.7204H112.562L110.965 28.3293L110.048 29.1692L109.658 31.7204Z" fill="#313131" fill-opacity="0.5"/>
<path fill-rule="evenodd" clip-rule="evenodd" d="M118.044 31.7204H115.482L119.934 23.144H122.522L124.338 31.7204H121.704L121.494 30.4912H118.639L118.044 31.7204ZM121.178 28.7304L120.775 26.2101L119.515 28.7304H121.178ZM121.969 22.3025H120.505L121.437 20.4064H123.87L121.969 22.3025ZM133.52 28.4714C132.947 30.5856 131.234 31.9235 129.081 31.9235C126.54 31.9235 125.024 30.0416 125.425 27.4134C125.817 24.8412 127.868 22.961 130.29 22.961C131.699 22.961 132.898 23.5819 133.471 24.6407C133.744 25.1688 133.822 25.6042 133.771 26.3371H131.254C131.269 25.5432 130.83 25.0911 130.013 25.0911C129.549 25.0911 129.194 25.2491 128.884 25.59C128.424 26.0739 128.131 26.7257 128.016 27.5037C127.796 28.9176 128.318 29.7926 129.378 29.7926C130.158 29.7926 130.703 29.343 130.927 28.4722L133.52 28.4714ZM136.745 31.7204H134.169L135.48 23.1448H138.046L136.745 31.7204ZM141.364 29.4942H146.159L145.817 31.7204H138.452L139.758 23.1448H147L146.657 25.3711H141.986L141.827 26.4616H145.843L145.57 28.3577H141.537L141.364 29.4942Z" fill="#313131" fill-opacity="0.5"/>
</svg>
