<svg width="143" height="25" viewBox="0 0 143 25" fill="none" xmlns="http://www.w3.org/2000/svg">
<path d="M28.8222 14.8459C28.8824 15.207 28.9155 15.5411 29.0028 15.9294C28.9155 22.1594 27.1247 23.3423 20.5154 23.6944C18.7186 23.6793 16.9971 23.7155 15.2785 23.6944H10.9446C5.24418 23.58 0.81991 23.4085 0.290201 16.2905C0.172625 14.7292 0.112391 13.1641 0.109619 11.5984C0.109619 5.07635 1.157 1.4316 8.41641 0.944025C10.4781 0.754414 12.639 0.754414 14.7368 0.763443C17.5689 0.754414 20.4071 0.754414 23.2242 1.12461C27.9043 1.56403 28.5453 4.8747 28.6416 8.88965H21.9601C21.9932 6.69557 20.8104 6.3946 18.8872 6.3615C18.1769 6.25917 17.5358 6.25917 16.9038 6.17791H14.9174L11.4863 6.3615C7.06806 6.32538 7.03495 7.9446 6.97175 12.1401C7.03495 16.7961 7.27272 18.0091 12.2086 18.0963L14.9174 18.2799C16.0159 18.2107 17.1626 18.1806 18.3484 18.0963C20.6749 18.1776 22.1647 17.9729 22.1407 14.8459H28.8222ZM42.9076 0.763443H53.3784C61.1254 0.754414 63.7258 2.6114 63.6716 10.6955V11.779C63.7258 20.3416 63.2201 23.2459 53.0172 23.5168L47.9609 23.6974C47.2145 23.7185 46.4711 23.7185 45.7939 23.6974C44.2269 23.7145 42.6599 23.6542 41.0988 23.5168C36.1388 23.1767 33.1652 21.4913 32.9726 16.1129C32.8612 14.6683 32.8612 13.2838 32.789 11.9596C32.8643 3.05082 33.9116 0.956064 42.9076 0.763443ZM66.5639 9.25082H73.7872V14.8459H66.5639V9.25082ZM114.779 0.944025H133.018C139.564 0.956064 142.129 2.40975 142.047 9.25082C142.129 15.0746 141.084 17.8736 134.102 17.9188H121.642V23.5168H114.779V0.944025ZM87.5115 0.763443H97.8047C105.708 0.754414 108.309 2.6114 108.275 10.6955V11.779C108.309 20.3416 107.803 23.2459 97.6211 23.5168L92.5648 23.6974C91.7943 23.7185 91.0509 23.7185 90.3978 23.6974C88.8297 23.7153 87.2617 23.6551 85.6996 23.5168C80.7186 23.1767 77.742 21.4913 77.5734 16.1129C77.441 14.6683 77.441 13.2838 77.3928 11.9596C77.447 3.05082 78.4914 0.956064 87.5115 0.763443ZM139.155 19.544C137.924 19.6313 136.853 20.6064 136.81 21.8916C136.818 22.5113 137.068 23.1034 137.506 23.5419C137.944 23.9804 138.535 24.2306 139.155 24.2392C139.465 24.2453 139.773 24.1888 140.061 24.073C140.348 23.9572 140.609 23.7845 140.829 23.5652C141.048 23.346 141.221 23.0848 141.336 22.7972C141.452 22.5096 141.509 22.2016 141.503 21.8916C141.518 20.6034 140.446 19.6313 139.155 19.544Z" fill="#313131" fill-opacity="0.5"/>
<path d="M139.155 20.0827C140.23 20.0135 141.054 20.8321 141.141 21.8885C141.054 23.0292 140.23 23.8448 139.155 23.8749C138.138 23.8448 137.316 23.0322 137.349 21.8885C137.335 21.6476 137.372 21.4064 137.457 21.1807C137.543 20.955 137.675 20.7501 137.846 20.5794C138.017 20.4088 138.222 20.2763 138.447 20.1906C138.673 20.105 138.914 20.0682 139.155 20.0827Z" fill="#313131" fill-opacity="0.5"/>
<path d="M138.616 22.0721H139.158L139.88 23.3362H140.241L139.519 22.0721C139.955 22.042 140.25 21.8343 140.241 21.3498C140.25 20.8351 139.94 20.6064 139.338 20.6274H138.255V23.3362H138.616V22.0721Z" fill="#313131" fill-opacity="0.5"/>
<path d="M138.616 20.9857H139.339C139.531 20.9435 139.832 21.0037 139.88 21.3468C139.832 21.7411 139.528 21.7652 139.158 21.708H138.616V20.9857ZM39.8347 12.8625C39.7865 16.5584 40.0213 18.0091 44.1687 18.0993C45.3244 18.1806 46.5734 18.1806 47.7803 18.0993C48.9692 18.1806 50.1159 18.1475 51.2114 18.0993C54.4739 18.1475 56.5657 18.0121 56.8095 14.4877C56.7673 13.4193 56.8034 12.405 56.8095 11.4178C56.8034 10.0062 56.7372 7.9145 55.726 7.08382C54.9795 6.32838 53.0895 6.25916 51.7531 6.18091C49.4778 6.25916 47.1784 6.25916 44.894 6.3645C42.6217 6.36149 40.2952 6.19295 39.8347 9.25382C39.7865 10.1551 39.7865 11.0583 39.8347 11.9595V12.8625ZM131.574 12.3177C134.02 12.402 135.206 11.9656 135.185 9.42838C135.206 6.831 134.057 6.42469 131.574 6.35848H121.642V12.3147H131.574V12.3177ZM84.4416 12.8625C84.3693 16.5584 84.6071 18.0091 88.7755 18.0993C89.977 18.1806 91.1827 18.1806 92.3842 18.0993C93.5519 18.1806 94.7016 18.1475 95.8182 18.0993C99.0567 18.1475 101.148 18.0121 101.236 14.4877C101.353 13.4193 101.389 12.405 101.416 11.4178C101.389 10.0062 101.323 7.9145 100.336 7.08382C99.5653 6.32838 97.6752 6.25916 96.363 6.18091C94.0636 6.25916 91.7672 6.25916 89.5009 6.3645C87.2075 6.36149 84.881 6.19295 84.4446 9.25382C84.3723 10.1543 84.3723 11.0591 84.4446 11.9595L84.4416 12.8625Z" fill="white"/>
</svg>
