<svg width="133" height="39" viewBox="0 0 133 39" fill="none" xmlns="http://www.w3.org/2000/svg">
<path d="M35.956 7.3963C36.4854 6.48093 36.8232 5.46852 36.9489 4.41998C36.9489 2.7371 35.5504 1.81917 33.7883 1.05423V0.901237H46.6407V1.05423L27.481 38.7451C27.481 38.7451 21.6771 38.7451 19.0898 33.919C15.2439 26.4782 3.51029 5.4909 3.51029 5.4909C2.79856 3.70421 1.57875 2.16248 0 1.05423V0.901237H16.2229V1.30457C16.2229 2.69538 17.7892 5.69952 18.4325 7.07641L27.5509 24.9761L35.956 7.3963ZM77.4641 19.4268C74.6683 17.33 71.5953 15.6265 68.3318 14.3642C65.7305 13.2238 61.7168 11.7912 61.9545 9.07917C62.1923 6.3671 65.7305 5.76906 68.5276 6.0194C72.0226 6.424 75.3746 7.63358 78.3172 9.55205L76.9187 2.20859C73.7429 1.17197 70.4584 0.500018 67.129 0.205835C62.8363 -0.331935 58.4765 0.223191 54.4584 1.81917C52.8613 2.4652 51.4641 3.51924 50.4082 4.87467C49.3522 6.23009 48.6749 7.83883 48.4448 9.53814C47.312 22.1945 69.2408 22.6813 68.6395 29.5796C68.3597 32.7368 63.9264 33.1957 60.7098 32.9176C55.3798 32.3726 50.2992 30.3967 46.0114 27.2014L47.6616 35.5462C52.0352 37.2912 56.6443 38.3832 61.3392 38.7868C66.4158 39.2179 71.0309 39.1206 75.4642 37.0622C77.2387 36.3477 78.784 35.1663 79.9346 33.6448C81.0852 32.1232 81.7976 30.3189 81.9953 28.4253C82.317 24.8092 80.6807 22.111 77.4641 19.4268ZM96.1624 38.7451V13.5715H96.3721C96.3721 13.5715 109.378 25.6298 119.126 34.5309C124.412 39.357 126.44 38.7033 128.916 38.7033V8.39768C128.916 5.42136 128.37 2.3894 132.09 1.08204V0.901237H118.343V1.05423C121.518 2.36158 121.49 3.44641 121.49 8.36986V21.5964L99.4629 1.05423V0.901237H85.4777V1.05423C87.2678 1.81917 88.6243 2.7371 88.6243 4.41998V35.0177C88.5544 36.784 87.3796 37.8689 85.4077 38.6338V38.7868L96.1624 38.7451Z" fill="#313131" fill-opacity="0.5"/>
</svg>
