<svg width="29" height="29" viewBox="0 0 29 29" fill="none" xmlns="http://www.w3.org/2000/svg">
<path d="M26.5471 22.1488C26.5471 22.5838 26.4504 23.0309 26.245 23.4659C26.0396 23.9009 25.7738 24.3117 25.4234 24.6984C24.8313 25.3509 24.1788 25.8221 23.4417 26.1242C22.7167 26.4263 21.9313 26.5834 21.0854 26.5834C19.8529 26.5834 18.5359 26.2934 17.1463 25.7013C15.7567 25.1092 14.3671 24.3117 12.9896 23.3088C11.6 22.2938 10.2829 21.17 9.02627 19.9254C7.78169 18.6688 6.65794 17.3517 5.65502 15.9742C4.66419 14.5967 3.86669 13.2192 3.28669 11.8538C2.70669 10.4763 2.41669 9.15919 2.41669 7.90252C2.41669 7.08085 2.56169 6.29544 2.85169 5.57044C3.14169 4.83335 3.60085 4.15669 4.24127 3.55252C5.0146 2.79127 5.86044 2.41669 6.7546 2.41669C7.09294 2.41669 7.43127 2.48919 7.73335 2.63419C8.04752 2.77919 8.32544 2.99669 8.54294 3.31085L11.3463 7.2621C11.5638 7.56419 11.7209 7.8421 11.8296 8.10794C11.9384 8.36169 11.9988 8.61544 11.9988 8.84502C11.9988 9.13502 11.9142 9.42502 11.745 9.70294C11.5879 9.98085 11.3584 10.2709 11.0684 10.5609L10.15 11.5154C10.0171 11.6484 9.95669 11.8054 9.95669 11.9988C9.95669 12.0954 9.96877 12.18 9.99294 12.2767C10.0292 12.3734 10.0654 12.4459 10.0896 12.5184C10.3071 12.9171 10.6817 13.4367 11.2134 14.065C11.7571 14.6934 12.3371 15.3338 12.9654 15.9742C13.6179 16.6146 14.2463 17.2067 14.8867 17.7504C15.515 18.2821 16.0346 18.6446 16.4454 18.8621C16.5059 18.8863 16.5784 18.9225 16.6629 18.9588C16.7596 18.995 16.8563 19.0071 16.965 19.0071C17.1704 19.0071 17.3275 18.9346 17.4604 18.8017L18.3788 17.8954C18.6809 17.5934 18.9709 17.3638 19.2488 17.2188C19.5267 17.0496 19.8046 16.965 20.1067 16.965C20.3363 16.965 20.5779 17.0134 20.8438 17.1221C21.1096 17.2309 21.3875 17.3879 21.6896 17.5934L25.6892 20.4329C26.0034 20.6504 26.2209 20.9042 26.3538 21.2063C26.4746 21.5084 26.5471 21.8104 26.5471 22.1488Z" stroke="white" stroke-width="2" stroke-miterlimit="10"/>
</svg>
