<svg width="30" height="29" viewBox="0 0 30 29" fill="none" xmlns="http://www.w3.org/2000/svg">
<path d="M27.0471 22.1488C27.0471 22.5838 26.9504 23.0309 26.745 23.4659C26.5396 23.9009 26.2738 24.3117 25.9234 24.6984C25.3313 25.3509 24.6788 25.8222 23.9417 26.1242C23.2167 26.4263 22.4313 26.5834 21.5854 26.5834C20.3529 26.5834 19.0359 26.2934 17.6463 25.7013C16.2567 25.1092 14.8671 24.3117 13.4896 23.3088C12.1 22.2938 10.7829 21.1701 9.52627 19.9255C8.28169 18.6688 7.15794 17.3517 6.15502 15.9742C5.16419 14.5967 4.36669 13.2192 3.78669 11.8538C3.20669 10.4763 2.91669 9.15925 2.91669 7.90258C2.91669 7.08091 3.06169 6.2955 3.35169 5.5705C3.64169 4.83341 4.10085 4.15675 4.74127 3.55258C5.5146 2.79133 6.36044 2.41675 7.2546 2.41675C7.59294 2.41675 7.93127 2.48925 8.23335 2.63425C8.54752 2.77925 8.82544 2.99675 9.04294 3.31091L11.8463 7.26216C12.0638 7.56425 12.2209 7.84216 12.3296 8.108C12.4384 8.36175 12.4988 8.6155 12.4988 8.84508C12.4988 9.13508 12.4142 9.42508 12.245 9.703C12.0879 9.98091 11.8584 10.2709 11.5684 10.5609L10.65 11.5155C10.5171 11.6484 10.4567 11.8055 10.4567 11.9988C10.4567 12.0955 10.4688 12.1801 10.4929 12.2767C10.5292 12.3734 10.5654 12.4459 10.5896 12.5184C10.8071 12.9172 11.1817 13.4367 11.7134 14.0651C12.2571 14.6934 12.8371 15.3338 13.4654 15.9742C14.1179 16.6147 14.7463 17.2067 15.3867 17.7505C16.015 18.2822 16.5346 18.6447 16.9454 18.8622C17.0059 18.8863 17.0784 18.9226 17.1629 18.9588C17.2596 18.9951 17.3563 19.0072 17.465 19.0072C17.6704 19.0072 17.8275 18.9347 17.9604 18.8017L18.8788 17.8955C19.1809 17.5934 19.4709 17.3638 19.7488 17.2188C20.0267 17.0497 20.3046 16.9651 20.6067 16.9651C20.8363 16.9651 21.0779 17.0134 21.3438 17.1222C21.6096 17.2309 21.8875 17.388 22.1896 17.5934L26.1892 20.433C26.5034 20.6505 26.7209 20.9042 26.8538 21.2063C26.9746 21.5084 27.0471 21.8105 27.0471 22.1488Z" stroke="white" stroke-width="2" stroke-miterlimit="10"/>
</svg>
